<svg version="1.1" id="Layer_1" xmlns="http://www.w3.org/2000/svg" xmlns:xlink="http://www.w3.org/1999/xlink" x="0px" y="0px"
	 viewBox="0 0 512 512" style="enable-background:new 0 0 512 512;" xml:space="preserve">
<g>
	<path d="M511.3,262.7c0,53.3-18.3,100.7-55.5,142.5c-13.5,15.6-24.3,23-31.7,23c-2.6,0-5.5-0.8-7.4-2.7c-2-2.1-3.1-4.7-3.1-7.5
		c0-4,4.7-10.1,14.3-18.9c38.7-37.1,58.2-83.1,58.2-137.7c0-60.7-20.1-109.9-60.1-148c-7.9-7.2-12.2-13.3-12.2-18.2
		c0-2.5,1.4-5.4,3.5-7.3c2.3-1.9,4.9-3.2,7.4-3.2c8.9,0,22.4,10.8,39.3,32.6c31.9,40.6,47.9,89.5,47.9,146L511.3,262.7z M0,249.3
		c0-53.3,18.2-100.7,55.4-142.6C69,91.2,79.8,83.8,87.2,83.8c2.5,0,5.4,0.7,7.3,2.7c1.9,2,3.1,4,3.1,6.7c0,4-4.8,10.2-14.4,19.6
		c-37.9,37.2-57.8,83.1-57.8,137.8c0,60.7,20.3,110.1,60.3,148c8.1,7.3,12.1,13.5,12.1,18.2c0,2.7-1.3,5.5-3.4,7.5
		c-2.1,2-4.7,3.3-7.5,3.3c-9.2,0-22-10.8-39-32.3C15.7,355.3,0,306.6,0,249.3L0,249.3z M377.6,395.7H143.3
		c-7.5,0-14.3-6.1-14.3-14.2c0-8.2,6.1-14.3,14.3-14.3h234.3c7.4,0,14.2,6.1,14.2,14.3C391.6,389.8,385.7,395.7,377.6,395.7z
		 M249.6,205.5c4.2-0.6,7.3,13.1,7.7,16c1,7.5-1.5,14.7-4.9,21.3c-12.7,24.9-42.2,44.9-34.3,76.3c3.5,13.5,10.5,22.9,32.2,34.5
		c-7.3,2.5-17.6-2.3-23.3-6.4c-25.6-17.4-41.8-46-40.3-77.2c0.6-9.8,2.5-19.6,5.1-29.2c8-27.3,24.3-51.1,33.8-77.7
		c4.8-12.8,8.3-28.3,4.5-41.7c-1.9-6.6-5.4-12.8-9.9-18.2c-1.2-1.6-8.6-9.9-11.5-8.9c12.9-4.9,24.3-0.3,35.5,6.3
		c8.6,5.2,15.4,12.5,20.4,20.8c9.6,15.3,13.4,32.9,15.3,50.8c0.7,7.4-0.3,25.3,8.3,28.8c9,3.8,16-11.2,17.9-17.3
		c4.2-13.7-1.3-26.9-6.7-39.7c1.3,2.6,6.1,5.4,8.2,7.4l7.7,7.3c9.3,9.6,15.1,21.4,18.9,34.2c3.5,11.5,5.1,23.3,5.7,34.8
		c1.6,24-3.8,48.7-13.4,70.7c-4.2,9.9-9.6,19.2-16.7,27.2c-6.7,7.9-15.9,13.1-23.2,20.4c17.2-17.3,26.4-45.4,23.9-66.8
		c-1.2-11.8-5.1-22.7-14.1-33.5c0,0,1,7.7,1.9,12.4c1.6,10.6-5.5,21.8-13.7,20.5c-6.1-0.7-2.9-13.7-2.2-17.9
		c2.2-12.4-0.7-24.6-5.2-36.1c-4.4-10.9-12.7-19.5-25.5-17.6L249.6,205.5z"/>
</g>
</svg>
