
<svg version="1.0" xmlns="http://www.w3.org/2000/svg"
 width="100.000000pt" height="100.000000pt" viewBox="0 0 100.000000 100.000000"
 preserveAspectRatio="xMidYMid meet">

<g transform="translate(0.000000,100.000000) scale(0.100000,-0.100000)"
fill="#000000" stroke="none">
<path d="M335 869 c-48 -47 -73 -65 -83 -60 -28 16 -60 1 -64 -30 -3 -16 -1
-32 4 -37 4 -4 -37 -54 -92 -110 l-101 -102 75 -75 c41 -41 77 -75 81 -75 3 0
49 43 102 95 53 52 99 95 102 95 3 0 45 -39 93 -87 75 -75 85 -88 71 -98 -9
-7 -16 -25 -16 -41 0 -25 25 -55 158 -187 96 -95 166 -157 178 -157 26 0 157
131 157 157 0 13 -59 80 -160 181 -137 137 -164 160 -187 157 -15 -1 -29 -8
-31 -14 -8 -24 -31 -8 -111 75 l-84 85 34 36 c19 19 82 84 142 144 59 60 107
110 107 113 0 2 -69 4 -153 4 l-153 0 -69 -69z"/>
</g>
</svg>
