<svg xmlns="http://www.w3.org/2000/svg" viewBox="0 0 358.882 82.905">
  <path d="M13.1,1.8V54.3H34.7a.9.9,0,0,1,.9.9V66a.9.9,0,0,1-.9.9H.8A.818.818,0,0,1,0,66V1.8A.818.818,0,0,1,.8.9H12.2A.9.9,0,0,1,13.1,1.8ZM2.8,69.305h.8l5.9,5.9H9.1a.851.851,0,0,1-.6-.3Zm2.4,0H6.7l5.9,5.9H11Zm4.8,0,5.7,5.9H14.2l-5.9-5.9Zm1.5,0h1.6L19,75.2H17.3Zm10.6,5.9H20.5l-5.9-5.9h1.6ZM15.5,5.4l5.8,5.9v1.5L15.5,7ZM21.3,16l-5.8-5.8V8.5l5.8,5.9Zm0,3.2-5.8-5.9V11.7l5.8,5.8Zm0,3.1-5.8-5.9V14.9l5.8,5.9Zm0,3.1-5.8-5.7V18l5.8,5.9Zm0,3.3-5.8-5.9V21.2L21.3,27Zm0,3.1-5.8-5.9V24.3l5.8,5.9Zm0,3.1L15.5,29V27.5l5.8,5.9Zm0,3.1-5.8-5.7V30.7l5.8,5.8Zm0,3.3-5.8-5.9V33.8l5.8,5.9Zm0,3.1-5.8-5.9V36.9l5.8,5.9Zm0,3.1-5.8-5.8V40.2L21.3,46Zm0,3.2-5.8-5.8V43.3l5.8,5.9Zm-2,1.2L15.5,48V46.4L21,51.9Zm-3.8-2.4,2.3,2.4H16.2l-.7-.7Zm8.1,25.7-5.8-5.9h1.5l5.9,5.9Zm4.7,0H26.8l-5.8-5.9h1.5Zm-2.6-5.9,5.9,5.9H30l-5.9-5.9Zm1.5,0h1.6l5.9,5.9H33.1Zm10.6,5.9H36.2l-5.7-5.9H32Zm-2.7-5.9L41,75.2H39.5l-5.9-5.9Zm2.1-1.1,6.5,6.5a.933.933,0,0,1-.7.5h-.4l-6.3-6.3A3.515,3.515,0,0,0,37.2,68.2Zm.8-2.4,5.8,5.9v1.5l-6.1-6A5.274,5.274,0,0,0,38,66Zm5.6-3a1.08,1.08,0,0,1,.2.6v.4L38,57.9v-.7Zm.2,4.1L38,61V59.4l5.8,5.9ZM38,62.7l5.8,5.8V70L38,64.2Z" ></path>
  <path d="M48.8,66V1.8a.818.818,0,0,1,.8-.9H61a.9.9,0,0,1,.9.9V66a.9.9,0,0,1-.9.9H49.6A.818.818,0,0,1,48.8,66Zm2.8,3.3H53l5.9,5.9h-1a.849.849,0,0,1-.6-.3Zm8.9,5.9-5.9-5.9h1.7L62,75.2Zm-2.7-5.9h1.6l5.9,5.9H63.6Zm3.1,0H61a2.776,2.776,0,0,0,1.3-.3l6.1,6.2H66.8Zm9.2,4.5v.5c0,.4-.1.6-.3.7l-6.5-6.6a2.033,2.033,0,0,0,.6-.9Zm0-61.6L64.3,6.4V4.8l5.8,5.9Zm0,3.2L64.3,9.5V7.9l5.8,5.9Zm0,3.1-5.8-5.8V11l5.8,5.9Zm0,3.2-5.8-5.9V14.3l5.8,5.9Zm0,3.1L64.3,19V17.4l5.8,5.9Zm0,3.2-5.8-5.8V20.5l5.8,5.9Zm0,3.2-5.8-5.9V23.7l5.8,5.8Zm0,3.1-5.8-5.9V26.9l5.8,5.8Zm0,3.1-5.8-5.7V30l5.8,5.9Zm0,3.3-5.8-5.9V33.2L70.1,39Zm0,3.1-5.8-5.9V36.4l5.8,5.8Zm0,3.1L64.3,41V39.5l5.8,5.9Zm0,3.1-5.8-5.7V42.7l5.8,5.8Zm0,3.3-5.8-5.9V45.8l5.8,5.9Zm0,3.1-5.8-5.9V48.9l5.8,5.9Zm0,3.1-5.8-5.8V52.2l5.8,5.7Zm0,3.2-5.8-5.8V55.3l5.8,5.9Zm0,3.2L64.3,60V58.4l5.8,5.9Zm0,3.1-5.8-5.8V61.7l5.8,5.7Zm0,3.2-5.8-5.9V64.8l5.8,5.9Z" ></path>
  <path d="M123.2,20.7V47c0,11.3-4.2,18.2-16.1,20.5v6.2a1.075,1.075,0,0,1-1,1H94.7a1.075,1.075,0,0,1-1-1V67.5C82.5,65.4,77.5,58.8,77.5,47V20.7C77.5,5.9,85.6,0,100.5,0,114.3,0,123.2,5.5,123.2,20.7ZM91,70.7a15.749,15.749,0,0,0-1.9-1.9,4.4,4.4,0,0,0,1,.2l1.2,1.3V71C91.2,70.9,91.1,70.805,91,70.7ZM110,24c0-8.8-4.8-10.6-9-10.6H99.7c-6.2,0-8.9,4.1-8.9,10.6V43.8c0,8.7,4.8,10.6,8.9,10.6H101c6.2,0,9-4.2,9-10.6ZM99.3,29.4l-6.1-6.1c0-.5.1-1,.1-1.5L99.6,28A7.139,7.139,0,0,1,99.3,29.4Zm-6.1-3V24.9l6,5.9a7.644,7.644,0,0,0-.1,1.5Zm0,3.1V28l5.9,5.9v1.6Zm0,3.3V31.2L99.1,37v1.7Zm0,3.1V34.3l5.9,5.9v1.6Zm0,3.1V37.5l5.9,5.9v1.5Zm5.9,9-5.9-5.7V40.7l5.9,5.8Zm-5.9-4.2,5.9,5.9v1.6l-5.8-5.9A8.078,8.078,0,0,1,93.2,43.8Zm6.8-17-6.4-6.3a4.234,4.234,0,0,1,.4-1.2l6.5,6.5A1.6,1.6,0,0,0,100,26.8ZM93.6,47.3l4.6,4.6a6.875,6.875,0,0,1-2.9-1.2A8.33,8.33,0,0,1,93.6,47.3Zm7.5-22.5-6.6-6.6c.2-.4.3-.7.7-.9l6.5,6.6C101.5,24.2,101.2,24.4,101.1,24.8Zm1.5-1.6-6.5-6.5a2.344,2.344,0,0,1,1-.5l6.5,6.3C103.2,22.8,103,22.9,102.6,23.2Zm-4.5,53.8,5.9,5.9h-1a1.05,1.05,0,0,1-.9-.5l-5.4-5.4Zm6.6-54.8-6.2-6.4H100l6,6A6.4,6.4,0,0,0,104.7,22.2Zm-3.5,54.8,5.9,5.9h-1.6l-5.9-5.9Zm.4-61.2a8.816,8.816,0,0,1,1.7.2l3.8,3.8.4,1.9Zm7.1,67.1-5.9-5.9h1.5l5.9,5.9Zm4.8,0h-1.7l-5.8-5.9h.1a4.334,4.334,0,0,0,1.2-.2Zm1.3-.1-6.5-6.6c.3-.3.4-.5.7-.8l6.3,6.3v.2A.959.959,0,0,1,114.8,82.805Zm.5-5.8-5.8-6V69.5l6.2,6.2c-.1.1-.2.1-.4.1Zm0,3.2-5.8-6V72.7l5.8,5.8Zm1.7-4.8L110.7,69a3.537,3.537,0,0,0,1.1-.3l6.4,6.3A8.331,8.331,0,0,1,117,75.4Zm-2.9-7.6,6.5,6.5a3.582,3.582,0,0,0-1.1.4L113,68.3A9.75,9.75,0,0,0,114.1,67.8Zm7.6,6-6.5-6.5a9.386,9.386,0,0,1,1-.5l6.5,6.5C122.3,73.4,122.1,73.7,121.7,73.805Zm2-1.1-6.5-6.5a5.544,5.544,0,0,1,.9-.7l6.5,6.5A3.08,3.08,0,0,1,123.7,72.7Zm1.9-1.4L119,64.8c.2-.3.6-.5.8-.8l6.5,6.7A3.749,3.749,0,0,1,125.6,71.305Zm1.5-1.5-6.5-6.6c.2-.3.5-.5.7-.8l6.5,6.5C127.6,69.2,127.3,69.5,127.1,69.805Zm-4.5-9.3,6.5,6.5a5.252,5.252,0,0,0-.6,1L122,61.4C122.2,61.2,122.3,60.8,122.6,60.5Zm1-2.1,6.5,6.4c-.1.4-.4.7-.5,1.1l-6.5-6.5A2.339,2.339,0,0,0,123.6,58.4Zm.9-2.4,6.2,6.4a5.8,5.8,0,0,1-.2,1.3l-6.4-6.4A6.457,6.457,0,0,1,124.5,56Zm0-44.1a26.952,26.952,0,0,1,5.1,6.8L125,13.9C124.8,13.3,124.7,12.7,124.5,11.9Zm.6,41.6,6.1,6.2c0,.5-.1,1-.1,1.3l-6.3-6.2A6.1,6.1,0,0,1,125.1,53.5ZM130.5,21c.2.8.3,1.4.5,2.2l-5.5-5.5c0-.7-.2-1.3-.2-1.8Zm-5,29.8,6,6v1.5l-6.2-6.1A3.4,3.4,0,0,0,125.5,50.8Zm.1-31.5,5.7,5.7c0,.5.2,1.2.2,1.8l-5.9-5.9Zm0,3.2,5.9,5.9V30l-5.9-6Zm5.9,10.7-5.9-5.9V25.7l5.9,5.8Zm-5.9-4.4,5.9,5.9v1.6l-5.9-5.9Zm0,3.2,5.9,5.9v1.5l-5.9-5.9Zm0,3.2,5.9,5.8v1.5l-5.9-5.8Zm0,3.1,5.9,5.9v1.6l-5.9-5.9Zm0,3.1,5.9,5.9v1.6L125.6,43Zm0,3.3,5.9,5.8V52l-5.9-5.8Zm0,3.1,5.9,5.9v1.6l-5.9-6Z" ></path>
  <path d="M171.6,1.8a.9.9,0,0,1,.9-.9h11.4a.9.9,0,0,1,.9.9V47c0,14.4-7.9,20.9-22.8,20.9-14.1,0-22.9-5.6-22.9-20.9V1.8a.9.9,0,0,1,.9-.9h11.5a.9.9,0,0,1,.9.9v42c0,8.7,4.9,10.6,9,10.6h1.2c6.2,0,9-4.2,9-10.6Zm-20.8,67a4.286,4.286,0,0,0,.5.1l3.3,3.4C153.1,71.305,152.1,69.9,150.8,68.8Zm7.3,5.4-4.7-4.8a5.952,5.952,0,0,0,2,.4l5.1,5.1C159.6,74.7,158.9,74.4,158.1,74.2ZM154.8,4.5V3.8l5.6,5.6a1.079,1.079,0,0,1,.2.6v.4Zm0,3.2V6.2l5.8,5.7v1.6Zm5.8,9-5.8-5.8V9.3l5.8,5.9Zm0,3.2L154.8,14V12.4l5.8,5.9Zm0,3.1-5.8-5.8V15.5l5.8,5.9Zm0,3.2-5.8-5.9V18.8l5.8,5.9Zm0,3.1-5.8-5.9V21.9l5.8,5.9Zm0,3.2-5.8-5.8V25l5.8,5.9Zm0,3.2-5.8-5.9V28.2l5.8,5.8Zm0,3.1-5.8-5.9V31.4l5.8,5.8Zm0,3.1-5.8-5.7V34.5l5.8,5.9Zm0,3.3-5.8-5.9V37.7l5.8,5.8Zm0,3.1-5.8-5.9V40.8l5.8,5.9ZM154.8,44l5.8,5.9v1.5l-5.7-5.7A9.7,9.7,0,0,1,154.8,44Zm.5,3.5,4.2,4.4a5.236,5.236,0,0,1-2.6-1.2A5.435,5.435,0,0,1,155.3,47.5Zm7.2,27.9L157.1,70a5.844,5.844,0,0,0,1.8.2l5.5,5.6C163.8,75.705,163.1,75.505,162.5,75.4Zm-.4-5.1,5.8,5.7h-1.6l-5.8-5.7h1.6Zm3-.1,6,6h-1.6l-5.9-5.9C164.1,70.305,164.6,70.2,165.1,70.2Zm2.9-.3,6.1,6.1h-1.5l-6-6C167.1,70,167.6,69.9,168,69.9Zm2.8-.5,6.1,6.3c-.4,0-.9.1-1.4.1l-6.1-6.1A7.015,7.015,0,0,0,170.8,69.4Zm1.7-.5a3.536,3.536,0,0,0,.6-.1l6.4,6.2a8.331,8.331,0,0,1-1.2.4L172,69.2C172.1,69,172.4,69,172.5,68.9Zm3-1,6.4,6.4a3.585,3.585,0,0,0-1.1.4l-6.4-6.4C174.8,68.2,175.1,68,175.5,67.9Zm7.5,5.9-6.5-6.4a4.35,4.35,0,0,0,1-.6l6.5,6.5A2.362,2.362,0,0,1,183,73.805Zm-3.5-8.3L186,72a5.992,5.992,0,0,1-1,.7l-6.5-6.5C178.9,65.9,179.1,65.8,179.5,65.5Zm1.6-1.5,6.5,6.7-.7.7-6.5-6.6C180.6,64.5,180.9,64.4,181.1,64Zm1.5-1.6,6.5,6.5a1.8,1.8,0,0,1-.6.9l-6.6-6.5C182.1,63,182.4,62.7,182.6,62.4Zm1.3-1.9,6.5,6.5a9.292,9.292,0,0,1-.5,1l-6.6-6.5A3.318,3.318,0,0,0,183.9,60.5Zm1.1-2.1,6.4,6.5a5.07,5.07,0,0,1-.4,1l-6.5-6.4A12.022,12.022,0,0,0,185,58.4Zm.9-2.2,6.2,6.2a5.854,5.854,0,0,1-.2,1.3l-6.4-6.4C185.6,56.9,185.8,56.5,185.9,56.2Zm.6-2.5,6.3,6.1a6.94,6.94,0,0,1-.3,1.4l-6.2-6.3C186.4,54.5,186.4,54,186.5,53.7Zm.4-2.8,6.1,6c0,.5-.1,1.1-.1,1.5l-6.1-6.1A6.15,6.15,0,0,0,186.9,50.9Zm.2-3,5.9,5.9v1.6l-6-6A7.569,7.569,0,0,0,187.1,47.9Zm0-44.1,5.7,5.6a1.086,1.086,0,0,1,.2.6v1.2l-5.9-5.9Zm0,3.1,5.9,5.9v1.6l-5.9-5.9Zm0,3.1,5.9,5.9v1.6l-5.9-5.8Zm0,3.3L193,19v1.7l-5.9-5.9Zm0,3.1,5.9,5.9v1.5l-5.9-5.9Zm0,3.1,5.9,5.9v1.5l-5.9-5.7Zm0,3.2,5.9,5.8v1.7l-5.9-5.9Zm0,3.2,5.9,5.8v1.6l-5.9-5.9Zm0,3.1,5.9,5.9v1.5l-5.9-5.9Zm0,3.2L193,38v1.7l-5.9-5.9Zm0,3.1,5.9,5.9v1.6l-5.9-5.9Zm0,3.2,5.9,5.8v1.6L187.1,40Zm0,3.2,5.9,5.8V49l-5.9-5.8Zm0,3.1,5.9,5.9v1.6l-5.9-5.9Z" ></path>
  <path d="M242.1,6c3,3.3,4.4,8,4.4,14.7V47c0,6.9-1.4,11.7-4.4,14.9-3.9,4-9.8,6-18.4,6-8.9,0-14.7-2-18.5-6-2.9-3.2-4.5-8-4.5-14.9V20.7c0-6.7,1.5-11.5,4.5-14.8C209,1.8,215,0,223.7,0,232.3,0,238.3,1.9,242.1,6ZM215.6,72a8.446,8.446,0,0,1-1.8-1.5l-1.7-1.7a1.577,1.577,0,0,1,.4.1Zm17.6-48c0-8.8-4.7-10.6-9-10.6H223c-6.4,0-8.9,4.1-8.9,10.6V44c0,8.8,4.7,10.7,8.9,10.7h1.2c6.4,0,8.9-4.3,9-10.7ZM221.6,74.9a9.92,9.92,0,0,1-2.4-.9l-4.6-4.6c.6.1,1.2.3,1.9.4Zm-5-52.4,6,6c0,.5-.1,1-.1,1.5l-6-6A7.5,7.5,0,0,1,216.6,22.5Zm-.1,3.2,5.8,5.8V33l-5.8-5.8Zm0,3.1,5.8,5.9v1.5l-5.8-5.8Zm0,3.1,5.8,5.9v1.6l-5.8-5.9Zm0,3.1,5.8,5.9v1.6l-5.8-5.8Zm0,3.3,5.8,5.7v1.7l-5.8-5.9Zm0,3.1,5.8,5.9v1.5L216.5,43ZM222.3,52l-5.6-5.7c-.1-.5-.1-1.1-.2-1.8l5.8,5.9ZM217,19.8l6.3,6.4a2.019,2.019,0,0,0-.3,1.1L216.7,21A3.013,3.013,0,0,1,217,19.8Zm.2,28.6,3.3,3.4A5.321,5.321,0,0,1,217.2,48.4Zm.8-30.9,6.5,6.7c-.2,0-.2.1-.3.2a1.269,1.269,0,0,1-.4.6l-6.5-6.3a2.552,2.552,0,0,1,.7-1Zm5.7,57.9L218.3,70a5.248,5.248,0,0,0,1.8.2l5.5,5.6C225,75.705,224.3,75.505,223.7,75.4Zm-3.9-59.1,6.4,6.5c-.4.1-.6.4-.9.6l-6.6-6.6C219.1,16.7,219.3,16.4,219.8,16.3Zm7.5,6-6.2-6.4c.4,0,.9-.1,1.4-.1l6.1,6.1C228.1,22,227.7,22.2,227.3,22.3Zm0,53.6-5.6-5.6h1.6l5.8,5.7A11.372,11.372,0,0,1,227.3,75.9Zm-1.6-60,4.9,4.9c0,.2.1.6.1.9H230l-5.9-5.9h.1A7.078,7.078,0,0,1,225.7,15.9Zm5,60.3-5.9-5.9h1.5l6,5.9h-1.6Zm3.1,0-6-6c.5,0,1-.2,1.5-.2l6,6C234.8,76.005,234.3,76.205,233.8,76.205Zm-5.1-59c.4.2.6.6.9,1l-1.5-1.5A1.47,1.47,0,0,1,228.7,17.2Zm9.5,58.6c-.5,0-.9.1-1.4.1l-6.1-6.1a3.531,3.531,0,0,0,1.4-.3Zm1.4-.3-6.3-6.2a3.089,3.089,0,0,0,1.3-.3l6.2,6.3C240.5,75.4,240,75.4,239.6,75.505ZM237,68.2l6.3,6.3a3.374,3.374,0,0,1-1.2.4l-6.3-6.4Zm2.1-1,6.5,6.5a2.229,2.229,0,0,0-1.1.5L238,67.7A3.7,3.7,0,0,1,239.1,67.2Zm2-1.3,6.5,6.6a4.766,4.766,0,0,1-1,.5l-6.5-6.5A2.672,2.672,0,0,0,241.1,65.9Zm1.7-1.4,6.5,6.7a3.306,3.306,0,0,0-.8.6L242,65.3C242.2,65,242.6,64.8,242.8,64.5Zm1.5-1.5,6.7,6.5a5.978,5.978,0,0,1-.8.8l-6.6-6.5A2.51,2.51,0,0,0,244.3,63Zm1.4-1.8,6.5,6.5a8.653,8.653,0,0,0-.6,1L245.1,62C245.3,61.8,245.5,61.4,245.7,61.2Zm1.1-2.2,6.4,6.5a1.593,1.593,0,0,1-.5,1l-6.5-6.3A6.754,6.754,0,0,0,246.8,59Zm.8-2.2L254,63a9.272,9.272,0,0,0-.4,1.3l-6.4-6.4C247.3,57.5,247.5,57.2,247.6,56.8Zm.6-2.5,6.3,6.1a7.158,7.158,0,0,0-.3,1.4L248,55.5A4.3,4.3,0,0,0,248.2,54.3Zm4.4-36.9a23.245,23.245,0,0,1,1,2.8L248.5,15l-.4-2Zm-3.9,34,6,6.1a7.15,7.15,0,0,0-.1,1.4l-6.1-6C248.6,52.4,248.6,51.9,248.7,51.4Zm5.8-27.2-5.7-5.7a8.622,8.622,0,0,0-.1-1.7l5.4,5.4Zm-5.7,24.3,5.9,5.9v1.5l-6-5.9A7.569,7.569,0,0,0,248.8,48.5Zm5.8-22.6a8.169,8.169,0,0,1,.1,1.6l-5.9-5.8V20.2Zm-5.8-2.6,5.9,5.9v1.5l-5.9-5.9Zm5.9,10.6L248.8,28V26.4l5.9,5.9Zm-5.9-4.4,5.9,5.9V37l-5.9-5.8Zm0,3.3,5.9,5.7v1.7l-5.9-5.9Zm0,3.1,5.9,5.9v1.5l-5.9-5.8Zm0,3.1,5.9,5.9v1.6l-5.9-5.8Zm0,3.2,5.9,5.8v1.7l-5.9-5.9Zm0,3.2,5.9,5.9v1.5l-5.9-5.9Z" ></path>
  <path d="M294.5,47.2l8.4,18.5a.8.8,0,0,1-.7,1.2H289.9a.666.666,0,0,1-.7-.5l-7.8-17h-5.1V66a.9.9,0,0,1-.9.9H263.9a.808.808,0,0,1-.7-.9V1.8a.808.808,0,0,1,.7-.9h20.8c11.1,0,17.8,6.3,17.8,18V31.5a22.062,22.062,0,0,1-1.8,9.3A12.888,12.888,0,0,1,294.5,47.2Zm-25.3,22.1,5.8,5.9h-1.6l-5.9-5.9Zm3.1,0,5.9,5.9h-1.7l-5.7-5.9Zm9,5.9h-1.6l-5.8-5.9h1.5Zm8.1-53.3c0-7-2.6-7.7-10.2-7.7h-2.9V36.3h2.9c6.3,0,10-.1,10.2-7.9ZM277.7,68.4l6.6,6.5c-.3.1-.4.3-.6.3h-.8L276.8,69A2.837,2.837,0,0,0,277.7,68.4Zm1-2.2,5.8,5.8v1.5l-6.1-6.1A4.22,4.22,0,0,0,278.7,66.2Zm6.7-43.8h-.9V23l-5.8-5.7v-.8h.8Zm-.9,2.3v1.6l-5.8-5.9V18.8Zm0,3.1v1.6l-5.8-5.9V22Zm0,3.1v1.6l-5.8-5.8V25.2Zm-1.8,3-4-4V28.3l5.5,5.5A6.627,6.627,0,0,1,282.7,33.9Zm-3.2,0-.8-.9V31.4l2.5,2.5ZM281,54.4l-2.3-2.5v-.1h1.2Zm2.7,5.8-5-5V53.5l3.7,3.8Zm-5-3.5,5.8,5.8v1.7l-5.8-5.9Zm0,3.2,5.8,5.8v1.6l-5.8-5.9Zm0,3.1,5.8,5.8v1.6l-5.8-5.9ZM287,20.8v1.6h-.1l-5.7-5.9h1.5Zm-2.7-4.3a2.867,2.867,0,0,1,2.5,2.5Zm10.1,52.8,5.9,5.9h-1.6l-5.9-5.9Zm3.1,0,5.9,5.9h-1.6l-5.8-5.9Zm.7-20-.7-1.1a2.5,2.5,0,0,1,.7-.4l6.5,6.5a8.653,8.653,0,0,0-1,.6Zm7.3,4.2L299,47c.3-.2.5-.5.8-.7l6.5,6.5C306,53,305.8,53.3,305.5,53.5Zm-4.8,15.8,5.8,5.9h-1.6l-5.7-5.9Zm2.2-13.6,1.3,2.8-3.4-3.3-1.4-2.9Zm4.1-3.8-6.5-6.5a3.1,3.1,0,0,0,.7-.9l6.6,6.5A7.272,7.272,0,0,1,307,51.9Zm1.3-1.9-6.5-6.5a4.36,4.36,0,0,0,.6-1l6.5,6.5A8.794,8.794,0,0,1,308.3,50Zm-4.9,10.9L302,58l3.5,3.4,1.3,3Zm.1,8.1,6.2,6.2h-1.5l-5.9-5.9A2.132,2.132,0,0,0,303.5,69Zm5.8-21.1-6.4-6.4a2.216,2.216,0,0,0,.5-1.1l6.4,6.4A5.419,5.419,0,0,1,309.3,47.9Zm.7-2.4-6.2-6.2a6.457,6.457,0,0,1,.4-1.3l6.2,6.3A8.273,8.273,0,0,1,310,45.5Zm-5.3-30.7a12.845,12.845,0,0,1-.4-1.9l4.2,4.3a13.64,13.64,0,0,1,1.2,2.7Zm0,20.6,6,6a3.185,3.185,0,0,1-.2,1.4l-6.1-6.1A6.107,6.107,0,0,1,304.7,35.4Zm6.5,38.5c.1.4.1.8-.2,1l-6.5-6.6a1,1,0,0,0,.4-.5c.1-.1.1-.3.3-.4l5.6,5.6Zm-6.4-57.4,5.5,5.5a13.824,13.824,0,0,1,.2,1.9l-5.6-5.6A11.484,11.484,0,0,0,304.8,16.5Zm6,23.4-6-6a7.569,7.569,0,0,0,.1-1.5l5.9,5.9v1.6Zm-5.6,24.9-.4-1,3.4,3.5,1.3,2.9-4.1-4A3.178,3.178,0,0,0,305.2,64.8Zm-.3-45,5.8,5.9a7.5,7.5,0,0,1,.1,1.5l-5.9-5.8Zm5.9,10.6-5.9-5.9V23l5.9,5.8Zm0,3.1-5.9-5.8V26.2l5.9,5.7Zm0,3.2-5.9-5.8V29.3l5.9,5.9Z" ></path>
  <path d="M348.548,63.018a.341.341,0,0,1-.343-.342V58.345a.34.34,0,0,1,.343-.342h2.393c5.585,0,7.941,3,7.941,8.662,0,5.281-2.09,8.739-7.941,8.739h-9.993c-5.623,0-7.864-3.078-7.864-8.739,0-5.357,2.052-8.662,7.864-8.662h.8a.34.34,0,0,1,.343.342v4.369a.341.341,0,0,1-.343.342h-.607c-2.09,0-2.964,1.557-2.964,3.42v.456a3.029,3.029,0,0,0,1.1,2.659,4.782,4.782,0,0,0,2.926.722h7.524c3.3,0,4.027-1.862,4.027-3.381v-.456a3.1,3.1,0,0,0-1.1-2.7,4.879,4.879,0,0,0-2.924-.759Z" opacity="0.5"></path>
  <path d="M335.363,37.1c1.254-1.14,3.04-1.672,5.585-1.672h9.993c2.621,0,4.446.532,5.662,1.672,1.519,1.482,2.279,3.723,2.279,6.991,0,3.382-.76,5.585-2.279,7.029-1.216,1.1-3.041,1.71-5.662,1.71h-9.993c-2.545,0-4.369-.57-5.623-1.71-1.557-1.444-2.241-3.724-2.241-7.029C333.084,40.825,333.806,38.546,335.363,37.1Zm6.839,3.381c-3.344,0-4.027,1.786-4.027,3.419v.456c0,2.433,1.557,3.382,4.027,3.382h7.6c3.344,0,4.065-1.786,4.065-3.382V43.9c0-2.431-1.634-3.381-4.065-3.419Z"  opacity="0.5"></path>
  <path d="M333.768,8.224H358.16a.34.34,0,0,1,.342.341v4.142a.368.368,0,0,1-.342.3H344.1l14.171,4.179c.152.076.228.152.228.3v3a.32.32,0,0,1-.228.3l-14.438,3.913H358.16a.341.341,0,0,1,.342.342v4.217a.307.307,0,0,1-.342.266H333.768c-.191,0-.342-.114-.342-.266V23.953a.386.386,0,0,1,.227-.342l15.388-4.6-15.388-5.053a.254.254,0,0,1-.227-.267V8.565A.339.339,0,0,1,333.768,8.224Z"  opacity="0.5"></path>
  <circle cx="322.009" cy="70.666" r="4.594"  opacity="0.5"></circle>
</svg> 
